<?xml version="1.0"?>
<svg xmlns="http://www.w3.org/2000/svg" id="Capa_1" enable-background="new 0 0 512 512" height="512px" viewBox="0 0 512 512" width="512px"><g><g><path d="m376 31h-240c-74.991 0-136 60.56-136 135v90c0 69.41 53.038 126.752 121 134.184v75.816c0 6.067 3.655 11.537 9.26 13.858 5.605 2.322 12.057 1.038 16.347-3.251l85.606-85.607h143.787c74.99 0 136-60.561 136-135v-90c0-74.44-61.01-135-136-135zm106 225c0 57.897-47.552 105-106 105h-150c-3.978 0-7.793 1.58-10.606 4.393l-64.394 64.394v-53.787c0-8.284-6.716-15-15-15-58.449 0-106-47.103-106-105v-90c0-57.897 47.551-105 106-105h240c58.448 0 106 47.103 106 105z" data-original="#000000" class="active-path" data-old_color="#000000" fill="#1273EB"/><path d="m211 166c0-24.813-20.187-45-45-45s-45 20.187-45 45 20.187 45 45 45 45-20.187 45-45zm-45 15c-8.271 0-15-6.729-15-15s6.729-15 15-15 15 6.729 15 15-6.729 15-15 15z" data-original="#000000" class="active-path" data-old_color="#000000" fill="#1273EB"/><path d="m166 211c-41.355 0-75 33.645-75 75 0 8.284 6.716 15 15 15h120c8.284 0 15-6.716 15-15 0-41.355-33.645-75-75-75zm-42.43 60c6.191-17.461 22.874-30 42.43-30s36.239 12.539 42.43 30z" data-original="#000000" class="active-path" data-old_color="#000000" fill="#1273EB"/><path d="m406 241h-15v-75c0-6.067-3.654-11.536-9.26-13.858-5.603-2.321-12.057-1.039-16.347 3.252l-30 30c-5.858 5.858-5.858 15.355 0 21.213 5.857 5.858 15.355 5.858 21.213 0l4.394-4.394v38.787h-15c-8.284 0-15 6.716-15 15s6.716 15 15 15h60c8.284 0 15-6.716 15-15s-6.716-15-15-15z" data-original="#000000" class="active-path" data-old_color="#000000" fill="#1273EB"/></g></g> </svg>
