<svg width="24" height="24" xmlns="http://www.w3.org/2000/svg">

 <g>
  <title>background</title>
  <rect fill="none" id="canvas_background" height="402" width="582" y="-1" x="-1"/>
 </g>
 <g>
  <title>Layer 1</title>
  <path id="svg_2" fill="#ff0000" d="m8.5,4c-3.0376,0 -5.5,2.5 -5.5,5.5c0,1.599976 0.6167,2.900024 1.5938,3.900024c0.1337,0.199951 0.2591,0.299927 0.4062,0.5l7,7.099976l7,-7.099976l0.344,-0.400024c1.013,-1 1.656,-2.400024 1.656,-4c0,-3 -2.462,-5.5 -5.5,-5.5c-1.329,0 -2.549,0.400024 -3.5,1.199951c-0.951,-0.799927 -2.1711,-1.199951 -3.5,-1.199951z"/>
  <path id="svg_3" fill="#ff0000" d="m8.8889,5c-2.7001,0 -4.8889,2.199951 -4.8889,4.900024c0,1.299927 0.5481,2.5 1.4167,3.400024c0.1188,0.199951 0.2303,0.299927 0.3611,0.399902l6.2222,6.300049l6.222,-6.300049l0.306,-0.299927c0.901001,-0.900024 1.472,-2.099976 1.472,-3.5c0,-2.700073 -2.188999,-4.900024 -4.889,-4.900024c-1.181,0 -2.266,0.400024 -3.111,1.099976c-0.845,-0.699951 -1.93,-1.099976 -3.1111,-1.099976z"/>
 </g>
</svg>