<?xml version="1.0"?>
<svg xmlns="http://www.w3.org/2000/svg" id="Capa_1" enable-background="new 0 0 512 512" height="512px" viewBox="0 0 512 512" width="512px"><g><g><path d="m166 240.999c-19.556 0-36.24 12.539-42.437 30h84.873c-6.196-17.461-22.88-30-42.436-30z" data-original="#000000" class="active-path" data-old_color="#000000" fill="#717771"/><circle cx="166" cy="165.999" r="15" data-original="#000000" class="active-path" data-old_color="#000000" fill="#717771"/><path d="m376 30.999h-240c-74.443 0-136 60.557-136 135v90c0 69.375 53.588 126.68 121 134.165v75.835c0 6.064 3.647 11.543 9.258 13.857 5.533 2.309 12.023 1.073 16.348-3.252l85.605-85.605h143.789c74.443 0 136-60.557 136-135v-90c0-74.443-61.557-135-136-135zm-150 270h-120c-8.291 0-15-6.709-15-15 0-41.353 33.647-75 75-75-24.814 0-45-20.186-45-45s20.186-45 45-45 45 20.186 45 45-20.186 45-45 45c41.353 0 75 33.647 75 75 0 8.291-6.709 15-15 15zm180-30h-60c-8.291 0-15-6.709-15-15s6.709-15 15-15h15v-38.789l-4.395 4.395c-5.859 5.859-15.352 5.859-21.211 0s-5.859-15.352 0-21.211l30-30c4.277-4.292 10.752-5.61 16.348-3.252 5.61 2.314 9.258 7.793 9.258 13.857v75h15c8.291 0 15 6.709 15 15s-6.709 15-15 15z" data-original="#000000" class="active-path" data-old_color="#000000" fill="#717771"/></g></g> </svg>
